<?xml version="1.0" encoding="utf-8"?>
<!-- Generator: Adobe Illustrator 24.2.1, SVG Export Plug-In . SVG Version: 6.00 Build 0)  -->
<svg version="1.1" id="레이어_1" xmlns="http://www.w3.org/2000/svg" xmlns:xlink="http://www.w3.org/1999/xlink" x="0px"
	 y="0px" viewBox="0 0 453.54 56.69" style="enable-background:new 0 0 453.54 56.69;" xml:space="preserve">
<style type="text/css">
	.st0{fill:#1C355E;}
	.st1{fill:#A9C2EC;}
	.st2{fill:#F5333F;}
	.st3{fill:#00BBB4;}
	.st4{fill:#0071CE;}
	.st5{fill:#0A1632;}
	.st6{fill:#FDAF3F;}
	.st7{fill:#167C3B;}
	.st8{fill:#054D31;}
</style>
<g>
	<g>
		<path class="st0" d="M126.26,46.96v-3.35h-6.98c-0.8,0-1.44-0.65-1.44-1.44v-0.09c0-0.8,0.65-1.44,1.44-1.44h17.29
			c0.8,0,1.44,0.65,1.44,1.44v0.09c0,0.8-0.65,1.44-1.44,1.44h-6.98v3.35c0,0.8-0.65,1.44-1.44,1.44h-0.45
			C126.9,48.4,126.26,47.76,126.26,46.96z M120.73,38.66c-0.95,0-1.72-0.77-1.72-1.72v-8.35c0-0.96,0.78-1.75,1.75-1.75l0,0
			c0.96,0,1.75,0.78,1.75,1.75v1.7h10.56v-1.7c0-0.96,0.78-1.74,1.74-1.74l0,0c0.96,0,1.74,0.78,1.74,1.74v8.36
			c0,0.95-0.77,1.72-1.72,1.72H120.73z M122.5,35.62h10.56v-2.27H122.5V35.62z"/>
		<path class="st0" d="M148.49,28.77l2.79,6.8c0.44,1.08-0.35,2.27-1.53,2.27l0,0c-0.67,0-1.27-0.4-1.52-1.02l-2.26-5.42l-2.26,5.42
			c-0.26,0.61-0.86,1.02-1.52,1.02l0,0c-1.17,0-1.97-1.19-1.53-2.27l2.79-6.8c0.42-1.02,1.41-1.69,2.52-1.69l0,0
			C147.08,27.08,148.08,27.75,148.49,28.77z M159.09,34.27h-1.27v12.45c0,0.86-0.7,1.55-1.55,1.55h-13.35
			c-0.86,0-1.55-0.7-1.55-1.55v-3.87c0-0.86,0.7-1.55,1.55-1.55h0.07c0.86,0,1.55,0.7,1.55,1.55v2.36h10.04V28.59
			c0-0.89,0.73-1.62,1.62-1.62l0,0c0.89,0,1.62,0.73,1.62,1.62v2.5h1.27c0.88,0,1.59,0.71,1.59,1.59l0,0
			C160.68,33.56,159.97,34.27,159.09,34.27z"/>
		<path class="st0" d="M169.46,45.32v-4.37c0-0.93,0.76-1.69,1.69-1.69l0,0c0.93,0,1.69,0.76,1.69,1.69v4.37h6.52
			c0.81,0,1.47,0.66,1.47,1.47l0,0c0,0.81-0.66,1.48-1.47,1.48h-16.41c-0.81,0-1.47-0.66-1.47-1.48l0,0c0-0.81,0.66-1.47,1.47-1.47
			H169.46z M175.49,39.43L171.15,31l-4.35,8.43c-0.32,0.62-0.95,1-1.65,1h0c-1.39,0-2.28-1.47-1.65-2.7l4.52-8.79
			c0.6-1.17,1.8-1.9,3.12-1.9l0,0c1.31,0,2.52,0.73,3.12,1.9l4.52,8.79c0.63,1.23-0.26,2.7-1.65,2.7l0,0
			C176.45,40.44,175.81,40.05,175.49,39.43z"/>
		<path class="st0" d="M202.44,46.8L202.44,46.8c0,0.81-0.66,1.48-1.47,1.48h-16.41c-0.81,0-1.47-0.66-1.47-1.48l0,0
			c0-0.81,0.66-1.47,1.47-1.47h16.41C201.78,45.32,202.44,45.98,202.44,46.8z M201.54,38.58c0,0.81-0.66,1.48-1.48,1.48h-14.63
			c-0.81,0-1.48-0.66-1.48-1.48v-0.09c0-0.81,0.66-1.48,1.48-1.48h1.52v-6.87h-1.52c-0.81,0-1.48-0.66-1.48-1.48v-0.11
			c0-0.81,0.66-1.47,1.48-1.47h14.63c0.81,0,1.48,0.66,1.48,1.47v0.11c0,0.81-0.66,1.48-1.48,1.48h-1.32v6.87h1.32
			c0.81,0,1.48,0.66,1.48,1.48V38.58z M190.4,37.01h4.91v-6.87h-4.91V37.01z"/>
		<path class="st0" d="M224.06,46.8L224.06,46.8c0,0.81-0.66,1.48-1.47,1.48h-16.41c-0.81,0-1.47-0.66-1.47-1.48l0,0
			c0-0.81,0.66-1.47,1.47-1.47h16.41C223.4,45.32,224.06,45.98,224.06,46.8z M223.02,28.6L223.02,28.6c0,0.84-0.68,1.52-1.52,1.52
			h-12.24v2.59h12.24c0.84,0,1.52,0.68,1.52,1.52l0,0c0,0.84-0.68,1.52-1.52,1.52h-12.24v2.41h12.24c0.84,0,1.52,0.68,1.52,1.52l0,0
			c0,0.84-0.68,1.52-1.52,1.52h-14.01c-0.95,0-1.72-0.77-1.72-1.72V28.8c0-0.95,0.77-1.72,1.72-1.72h14.01
			C222.34,27.08,223.02,27.76,223.02,28.6z"/>
		<path class="st0" d="M234.84,46.77c0-0.83,0.67-1.5,1.5-1.5h1.39v-2.61h-4.64v4.1c0,0.83-0.68,1.51-1.51,1.51h-0.14
			c-0.83,0-1.51-0.68-1.51-1.51v-4.1h-2.34c-0.83,0-1.51-0.68-1.51-1.51l0,0c0-0.83,0.68-1.51,1.51-1.51h10.11V28.48
			c0-0.83,0.68-1.51,1.51-1.51h0.13c0.83,0,1.51,0.68,1.51,1.51v18.07c0,0.95-0.77,1.72-1.72,1.72h-2.8
			C235.51,48.27,234.84,47.6,234.84,46.77L234.84,46.77z M236.46,33.59c0,0.68-0.12,1.31-0.37,1.89c-0.25,0.58-0.59,1.1-1.02,1.54
			c-0.44,0.44-0.95,0.79-1.54,1.04c-0.59,0.25-1.23,0.37-1.9,0.37h-0.45c-0.68,0-1.31-0.12-1.9-0.37c-0.59-0.25-1.11-0.59-1.54-1.04
			c-0.44-0.44-0.78-0.96-1.02-1.54c-0.25-0.59-0.37-1.22-0.37-1.89v-1.78c0-0.68,0.12-1.31,0.37-1.89c0.25-0.59,0.59-1.1,1.02-1.54
			c0.44-0.44,0.95-0.79,1.54-1.03c0.59-0.25,1.23-0.37,1.9-0.37h0.45c0.68,0,1.31,0.12,1.9,0.37c0.59,0.25,1.11,0.59,1.54,1.03
			c0.44,0.44,0.78,0.96,1.02,1.54c0.25,0.58,0.37,1.22,0.37,1.89V33.59z M229.57,33.41c0,0.26,0.05,0.5,0.14,0.73
			c0.09,0.23,0.22,0.44,0.38,0.62c0.17,0.18,0.36,0.32,0.57,0.43c0.22,0.1,0.46,0.16,0.73,0.16c0.27,0,0.51-0.05,0.73-0.16
			c0.22-0.11,0.41-0.25,0.57-0.43c0.17-0.18,0.29-0.39,0.38-0.62c0.09-0.23,0.13-0.48,0.13-0.73v-1.42c0-0.24-0.04-0.48-0.13-0.71
			c-0.09-0.23-0.22-0.44-0.38-0.62c-0.17-0.18-0.36-0.33-0.57-0.44c-0.22-0.11-0.46-0.17-0.73-0.17c-0.27,0-0.51,0.06-0.73,0.17
			c-0.22,0.11-0.41,0.26-0.57,0.44c-0.17,0.18-0.29,0.39-0.38,0.62c-0.09,0.23-0.14,0.47-0.14,0.71V33.41z M243.8,48.27h-0.14
			c-0.83,0-1.51-0.68-1.51-1.51V28.48c0-0.83,0.68-1.51,1.51-1.51h0.14c0.83,0,1.51,0.68,1.51,1.51v18.28
			C245.31,47.6,244.64,48.27,243.8,48.27z"/>
		<path class="st0" d="M254.02,26.97c0.77,0,1.49,0.14,2.16,0.42c0.68,0.28,1.26,0.66,1.77,1.15s0.9,1.06,1.19,1.72
			c0.29,0.66,0.44,1.37,0.44,2.12v2.09h3.74v-5.91c0-0.88,0.71-1.59,1.59-1.59l0,0c0.88,0,1.59,0.71,1.59,1.59v18.13
			c0,0.88-0.71,1.59-1.59,1.59l0,0c-0.88,0-1.59-0.71-1.59-1.59v-9.26h-3.74v5.45c0,0.75-0.15,1.46-0.44,2.12
			c-0.29,0.66-0.69,1.23-1.19,1.72c-0.5,0.49-1.09,0.87-1.77,1.15c-0.68,0.28-1.4,0.42-2.16,0.42c-0.76,0-1.49-0.14-2.16-0.42
			c-0.68-0.28-1.26-0.66-1.76-1.15c-0.5-0.49-0.89-1.06-1.18-1.72c-0.29-0.66-0.44-1.37-0.44-2.12V32.38c0-0.75,0.15-1.46,0.44-2.12
			c0.29-0.66,0.69-1.23,1.18-1.72c0.5-0.49,1.08-0.87,1.76-1.15C252.54,27.11,253.26,26.97,254.02,26.97z M254.02,30.1
			c-0.32,0-0.61,0.06-0.9,0.18c-0.29,0.12-0.54,0.28-0.75,0.49c-0.22,0.2-0.39,0.44-0.51,0.72c-0.12,0.28-0.18,0.58-0.18,0.89v10.49
			c0,0.32,0.06,0.61,0.18,0.88c0.12,0.27,0.29,0.51,0.51,0.71c0.22,0.2,0.47,0.36,0.75,0.48c0.29,0.12,0.59,0.18,0.9,0.18
			c0.33,0,0.64-0.06,0.92-0.18c0.29-0.12,0.53-0.28,0.74-0.48c0.21-0.2,0.37-0.44,0.5-0.71c0.12-0.27,0.18-0.56,0.18-0.88V32.38
			c0-0.32-0.06-0.61-0.18-0.89c-0.12-0.28-0.29-0.52-0.5-0.72c-0.21-0.2-0.46-0.36-0.74-0.49C254.66,30.16,254.35,30.1,254.02,30.1z
			"/>
		<path class="st0" d="M270.32,46.63V28.64c0-0.86,0.7-1.55,1.55-1.55h7.99c0.86,0,1.55,0.7,1.55,1.55v17.99
			c0,0.86-0.7,1.55-1.55,1.55h-7.99C271.02,48.18,270.32,47.48,270.32,46.63z M273.79,45.12h4.16V30.12h-4.16V45.12z M284.3,46.72
			V28.52c0-0.86,0.7-1.55,1.55-1.55h0.09c0.86,0,1.55,0.7,1.55,1.55v5.54l1.13-0.01c0.84,0,1.53,0.68,1.53,1.52l0,0
			c0,0.84-0.68,1.52-1.51,1.52l-1.15,0.01v9.61c0,0.86-0.7,1.55-1.55,1.55h-0.09C285,48.27,284.3,47.58,284.3,46.72z"/>
		<path class="st0" d="M298.44,26.97c0.74,0,1.42,0.15,2.06,0.44c0.64,0.29,1.19,0.69,1.67,1.19c0.47,0.5,0.84,1.08,1.11,1.75
			c0.27,0.66,0.41,1.36,0.41,2.09V42.8c0,0.74-0.14,1.43-0.42,2.09c-0.28,0.66-0.66,1.24-1.14,1.75c-0.48,0.5-1.05,0.9-1.7,1.19
			c-0.65,0.29-1.35,0.44-2.08,0.44h-1.1c-0.76,0-1.49-0.14-2.16-0.43c-0.68-0.29-1.26-0.68-1.76-1.17c-0.5-0.5-0.89-1.07-1.18-1.73
			c-0.29-0.66-0.44-1.37-0.44-2.14V32.44c0-0.76,0.15-1.48,0.44-2.14c0.29-0.66,0.69-1.24,1.18-1.73c0.5-0.5,1.08-0.88,1.76-1.17
			c0.68-0.29,1.4-0.43,2.16-0.43H298.44z M297.25,30.17c-0.32,0-0.61,0.06-0.9,0.18c-0.29,0.12-0.54,0.28-0.75,0.48
			c-0.22,0.2-0.39,0.44-0.51,0.72c-0.12,0.28-0.18,0.57-0.18,0.89V42.8c0,0.32,0.06,0.61,0.18,0.89c0.12,0.28,0.29,0.52,0.51,0.72
			c0.22,0.2,0.47,0.36,0.75,0.48c0.29,0.12,0.58,0.18,0.9,0.18h1.01c0.32,0,0.61-0.06,0.88-0.18c0.27-0.12,0.51-0.29,0.71-0.5
			c0.2-0.21,0.36-0.45,0.47-0.73c0.11-0.28,0.17-0.57,0.17-0.87V32.44c0-0.3-0.06-0.59-0.17-0.86c-0.11-0.27-0.27-0.51-0.46-0.72
			c-0.2-0.21-0.43-0.38-0.7-0.51c-0.27-0.13-0.56-0.19-0.85-0.19H297.25z M307.99,48.27L307.99,48.27c-0.96,0-1.73-0.78-1.73-1.73
			V28.7c0-0.96,0.78-1.73,1.73-1.73l0,0c0.96,0,1.73,0.78,1.73,1.73v17.83C309.72,47.49,308.95,48.27,307.99,48.27z"/>
		<path class="st0" d="M332.12,46.8L332.12,46.8c0,0.81-0.66,1.48-1.48,1.48h-16.41c-0.81,0-1.48-0.66-1.48-1.48l0,0
			c0-0.81,0.66-1.47,1.48-1.47h16.41C331.46,45.32,332.12,45.98,332.12,46.8z M326.93,40.13l-4.48-8.92l-4.48,8.92
			c-0.3,0.6-0.92,0.98-1.59,0.98h0c-1.31,0-2.18-1.37-1.61-2.56l4.62-9.59c0.57-1.18,1.76-1.93,3.07-1.93l0,0
			c1.31,0,2.5,0.75,3.07,1.93l4.62,9.59c0.57,1.18-0.29,2.56-1.61,2.56l0,0C327.84,41.11,327.23,40.73,326.93,40.13z"/>
		<path class="st0" d="M334.94,28.8c0-0.95,0.77-1.72,1.72-1.72h6.85c0.83,0,1.5,0.67,1.5,1.5v0.05c0,0.83-0.67,1.5-1.5,1.5h-5.21
			v5.74h4.74c0.83,0,1.5,0.67,1.5,1.5l0,0c0,0.83-0.67,1.5-1.5,1.5h-4.74v6.31h5.62c0.83,0,1.5,0.67,1.5,1.5l0,0
			c0,0.83-0.67,1.5-1.5,1.5h-7.25c-0.95,0-1.72-0.77-1.72-1.72V28.8z M351.45,48.27h-0.2c-0.83,0-1.5-0.67-1.5-1.5v-7.89h-2.02
			c-0.83,0-1.5-0.67-1.5-1.5V37.2c0-0.83,0.67-1.5,1.5-1.5h2.02v-7.24c0-0.83,0.67-1.5,1.5-1.5h0.2c0.83,0,1.5,0.67,1.5,1.5v18.31
			C352.95,47.6,352.28,48.27,351.45,48.27z"/>
		<path class="st0" d="M361.73,45.32v-7.55c0-0.81,0.66-1.47,1.48-1.47h0.34c0.81,0,1.48,0.66,1.48,1.47v7.55h4.23l1.17-15.11
			h-11.55c-0.83,0-1.51-0.68-1.51-1.51l0,0c0-0.83,0.68-1.51,1.51-1.51h13.6c0.74,0,1.33,0.6,1.33,1.33v1.68l-1.17,15.11H374
			c0.81,0,1.47,0.66,1.47,1.47l0,0c0,0.81-0.66,1.48-1.47,1.48h-16.53c-0.81,0-1.47-0.66-1.47-1.48l0,0c0-0.81,0.66-1.47,1.47-1.47
			H361.73z"/>
		<path class="st0" d="M396.97,37.73L396.97,37.73c0,0.73-0.59,1.33-1.33,1.33h-16.71c-0.73,0-1.33-0.59-1.33-1.33l0,0
			c0-0.73,0.59-1.33,1.33-1.33h16.71C396.37,36.41,396.97,37,396.97,37.73z M392.01,40.48c0.56,0,1.08,0.1,1.56,0.3
			c0.49,0.2,0.91,0.48,1.27,0.82c0.36,0.35,0.64,0.75,0.85,1.23c0.21,0.47,0.32,0.99,0.32,1.54s-0.11,1.07-0.32,1.54
			c-0.21,0.47-0.5,0.89-0.85,1.24c-0.36,0.35-0.78,0.63-1.27,0.82c-0.49,0.19-1.01,0.29-1.56,0.29h-9.46c-0.56,0-1.08-0.1-1.57-0.29
			c-0.49-0.2-0.91-0.47-1.27-0.82c-0.36-0.35-0.65-0.77-0.86-1.24c-0.21-0.47-0.32-0.99-0.32-1.54s0.11-1.07,0.32-1.54
			c0.21-0.47,0.5-0.88,0.86-1.23c0.36-0.35,0.78-0.62,1.27-0.82c0.49-0.2,1.01-0.3,1.57-0.3H392.01z M395.46,28.48L395.46,28.48
			c0,0.77-0.62,1.4-1.4,1.4h-11.5v2.05h11.5c0.77,0,1.4,0.62,1.4,1.4l0,0c0,0.77-0.62,1.4-1.4,1.4h-13.23
			c-0.95,0-1.72-0.77-1.72-1.72V28.8c0-0.95,0.77-1.72,1.72-1.72h13.23C394.83,27.08,395.46,27.71,395.46,28.48z M382.56,43.41
			c-0.27,0-0.5,0.09-0.69,0.28c-0.19,0.19-0.28,0.42-0.28,0.69c0,0.27,0.09,0.5,0.28,0.69c0.19,0.19,0.42,0.28,0.69,0.28h9.46
			c0.27,0,0.5-0.09,0.69-0.28c0.19-0.19,0.28-0.42,0.28-0.69c0-0.27-0.09-0.5-0.28-0.69c-0.19-0.19-0.42-0.28-0.69-0.28H382.56z"/>
		<path class="st0" d="M406.99,27.76h2.78c0.74,0,1.34,0.6,1.34,1.34l0,0c0,0.74-0.6,1.34-1.34,1.34h-1.45
			c0.74,0.44,1.31,1,1.72,1.7c0.28,0.47,0.4,1.02,0.4,1.57v1.41c0,0.48-0.1,0.97-0.32,1.4c-0.29,0.57-0.69,1.07-1.21,1.48
			c-0.47,0.37-1.01,0.66-1.63,0.87c-0.62,0.21-1.27,0.32-1.95,0.32c-0.69,0-1.34-0.1-1.94-0.32c-0.6-0.21-1.12-0.5-1.58-0.87
			c-0.5-0.41-0.89-0.9-1.16-1.47c-0.21-0.45-0.31-0.96-0.31-1.46v-1.27c0-0.75,0.19-1.41,0.59-1.97c0.39-0.56,0.88-1.02,1.49-1.38
			h-1.41c-0.74,0-1.34-0.6-1.34-1.34l0,0c0-0.74,0.6-1.34,1.34-1.34h2.83v-0.58c0-0.87,0.71-1.58,1.58-1.58l0,0
			c0.87,0,1.58,0.71,1.58,1.58V27.76z M417.96,34.09h-0.78v8.94c0,0.24-0.02,0.48-0.06,0.72l-0.57,3.28
			c-0.13,0.73-0.76,1.25-1.49,1.25l0,0c-0.94,0-1.66-0.85-1.49-1.78l0.56-3.1h-12.08c-0.73,0-1.32-0.59-1.32-1.32l0,0
			c0-0.73,0.59-1.32,1.32-1.32h11.79v-12.1c0-0.93,0.75-1.68,1.68-1.68l0,0c0.93,0,1.68,0.75,1.68,1.68v2.4h0.78
			c0.84,0,1.52,0.68,1.52,1.52l0,0C419.48,33.41,418.8,34.09,417.96,34.09z M407.52,34.31c0-0.25-0.06-0.5-0.17-0.73
			c-0.11-0.23-0.26-0.44-0.45-0.61c-0.19-0.17-0.41-0.31-0.68-0.41c-0.26-0.1-0.54-0.15-0.82-0.15c-0.3,0-0.58,0.05-0.83,0.15
			c-0.26,0.1-0.48,0.23-0.68,0.41c-0.2,0.17-0.35,0.38-0.46,0.61c-0.11,0.23-0.17,0.48-0.17,0.73v0.38c0,0.27,0.06,0.52,0.17,0.74
			c0.11,0.23,0.27,0.43,0.46,0.6c0.2,0.17,0.42,0.31,0.68,0.41c0.25,0.1,0.53,0.15,0.83,0.15c0.29,0,0.56-0.05,0.82-0.15
			c0.26-0.1,0.49-0.23,0.68-0.41c0.19-0.17,0.34-0.37,0.45-0.6c0.11-0.23,0.17-0.47,0.17-0.74V34.31z"/>
		<path class="st0" d="M423.78,45.27v-6.76c0-0.83,0.67-1.5,1.5-1.5h0.27c0.83,0,1.5,0.67,1.5,1.5v6.76h2v-6.76
			c0-0.83,0.67-1.5,1.5-1.5h0.27c0.83,0,1.5,0.67,1.5,1.5v6.76h1.78l1.17-15.06h-11.55c-0.83,0-1.51-0.68-1.51-1.51l0,0
			c0-0.83,0.68-1.51,1.51-1.51h13.42c0.83,0,1.5,0.67,1.5,1.5v1.51l-1.17,15.06h1.23c0.83,0,1.5,0.67,1.5,1.5l0,0
			c0,0.83-0.67,1.5-1.5,1.5h-16.37c-0.83,0-1.5-0.67-1.5-1.5l0,0c0-0.83,0.67-1.5,1.5-1.5H423.78z"/>
	</g>
	<g>
		<g>
			<g>
				<g>
					<path class="st1" d="M73.17,8.96V6.51h-1.76v9.8h-3.14l0-4.9h-2.45V8.27h2.45V5.82h2.45V4.12c-0.37-0.06-0.74-0.09-1.12-0.09
						c-4.06,0-7.35,3.29-7.35,7.35s3.29,7.35,7.35,7.35c4.06,0,7.35-3.29,7.35-7.35c0-0.85-0.15-1.66-0.42-2.42H73.17z"/>
				</g>
				<rect x="68.96" y="6.51" class="st1" width="1.76" height="1.76"/>
				<rect x="68.96" y="8.96" class="st1" width="1.76" height="1.76"/>
				<rect x="66.51" y="8.96" class="st1" width="1.76" height="1.76"/>
				<rect x="68.96" y="11.41" class="st1" width="1.76" height="1.76"/>
				<rect x="68.96" y="13.86" class="st1" width="1.76" height="1.76"/>
			</g>
			<rect x="73.82" y="6.49" class="st1" width="1.76" height="1.76"/>
			<rect x="71.41" y="4.03" class="st1" width="1.76" height="1.76"/>
			<rect x="73.85" y="1.58" class="st1" width="1.76" height="1.76"/>
		</g>
		<path class="st2" d="M39.23,50.34l5.75-21.75c0.26-0.98,0.73-1.85,1.32-2.61c-0.51-1.61-1.99-2.78-3.76-2.78
			c-2.19,0-3.97,1.78-3.97,3.99v5.5H23.32v-5.55c0-2.17-1.75-3.93-3.91-3.93s-3.91,1.76-3.91,3.93v23.61c0,2.31,1.86,4.18,4.16,4.18
			h22.81c0.05,0,0.1-0.01,0.15-0.02C40.29,54.84,38.62,52.62,39.23,50.34z M38.57,48.38H23.32v-9.13h15.25V48.38z"/>
		<path class="st3" d="M102.09,23.26H78.65c-1.59,0-2.95,0.99-3.51,2.38c0.77,0.87,1.35,1.93,1.63,3.13l5.24,22.08
			c0.49,2.08-1.08,4.08-3.21,4.08h23.29c2.09,0,3.79-1.7,3.79-3.81V27.07C105.88,24.97,104.19,23.26,102.09,23.26z M98.4,48.48
			H82.35V29.72H98.4V48.48z"/>
		<path class="st4" d="M57.03,50.34l3.72-14.07l-1.78-7.5c-0.77-3.26-3.68-5.57-7.02-5.57c-2.26,0-4.31,1.07-5.65,2.78
			c0.12,0.38,0.21,0.78,0.21,1.21v23.68c0,0.19-0.03,0.38-0.06,0.56l4.79-19.63c0.19-0.78,1.3-0.76,1.46,0.02l4.28,20.2
			c0,0,0,0.01,0,0.01C56.87,51.5,56.88,50.92,57.03,50.34z"/>
		<path class="st5" d="M46.51,27.19c0-0.42-0.08-0.82-0.21-1.21c-0.6,0.76-1.06,1.63-1.32,2.61l-5.75,21.75
			c-0.6,2.28,1.07,4.49,3.39,4.58c0.18-0.01,0.36-0.02,0.54-0.05c0.06-0.01,0.12-0.02,0.18-0.03c1.14-0.25,2.08-0.99,2.64-1.98
			c0.11-0.23,0.24-0.45,0.3-0.7l0.18-0.72c0.03-0.19,0.06-0.37,0.06-0.56V27.19z"/>
		<path class="st6" d="M74.86,27.07c0-0.5,0.1-0.98,0.28-1.42c-1.73-1.95-4.46-2.93-7.28-2.19c-2.56,0.67-4.47,2.82-5.14,5.37
			l-1.97,7.45l3.36,14.14c0.12,0.52,0.12,1.03,0.03,1.52l4.73-19.37c0.19-0.79,1.31-0.79,1.5,0l4.53,18.92
			c-0.01-0.12-0.04-0.24-0.04-0.36V27.07z"/>
		<path class="st7" d="M82.01,50.85l-5.24-22.08c-0.28-1.2-0.86-2.26-1.63-3.13c-0.18,0.44-0.28,0.92-0.28,1.42v24.06
			c0,0.12,0.02,0.24,0.04,0.36l0.02,0.1c0.02,0.23,0.07,0.46,0.13,0.67c0.01,0.02,0.01,0.04,0.02,0.07
			c0.06,0.18,0.13,0.36,0.22,0.53c0.03,0.05,0.06,0.11,0.09,0.16c0.09,0.16,0.19,0.31,0.3,0.45c0.02,0.03,0.05,0.06,0.07,0.08
			c0.72,0.86,1.84,1.39,3.06,1.39C80.94,54.94,82.51,52.94,82.01,50.85z"/>
		<path class="st8" d="M64.11,50.42l-3.36-14.14l-3.72,14.07c-0.15,0.58-0.16,1.16-0.04,1.7c0.08,0.37,0.23,0.71,0.41,1.03
			c0.04,0.08,0.09,0.15,0.14,0.23c0.2,0.3,0.44,0.59,0.72,0.82c0.01,0.01,0.02,0.01,0.03,0.02c0.28,0.22,0.59,0.39,0.93,0.53
			c0.07,0.03,0.15,0.06,0.22,0.08c0.36,0.12,0.73,0.2,1.12,0.2c0.38,0,0.75-0.07,1.1-0.19c0.07-0.02,0.14-0.05,0.2-0.07
			c0.7-0.27,1.3-0.74,1.71-1.36c0.02-0.03,0.03-0.05,0.05-0.08c0.2-0.33,0.37-0.68,0.46-1.07l0.05-0.22
			C64.22,51.45,64.23,50.94,64.11,50.42z"/>
		<path class="st1" d="M52.33,3.76c-4.18,0-7.56,3.4-7.56,7.59s3.38,7.59,7.56,7.59s7.56-3.4,7.56-7.59S56.51,3.76,52.33,3.76z"/>
	</g>
</g>
</svg>
