<?xml version="1.0" encoding="utf-8"?>
<!-- Generator: Adobe Illustrator 27.2.0, SVG Export Plug-In . SVG Version: 6.00 Build 0)  -->
<svg version="1.1" id="레이어_1" xmlns="http://www.w3.org/2000/svg" xmlns:xlink="http://www.w3.org/1999/xlink" x="0px"
	 y="0px" viewBox="0 0 566.93 566.93" style="enable-background:new 0 0 566.93 566.93;" xml:space="preserve">
<style type="text/css">
	.st0{fill:#1A335B;}
	.st1{fill:#ABBEE2;}
	.st2{fill:#E6373F;}
	.st3{fill:#00A9A4;}
	.st4{fill:#006AB6;}
	.st5{fill:#0A1632;}
	.st6{fill:#F3A941;}
	.st7{fill:#167C3B;}
	.st8{fill:#054D31;}
</style>
<g>
	<g>
		<polygon class="st0" points="277.68,510.38 281.58,510.45 281.87,492.16 277.97,492.1 		"/>
		<polygon class="st0" points="69.13,270.86 62.08,273.73 68.85,277.46 		"/>
		<path class="st0" d="M429.53,457.56c-0.03,0-0.05-0.01-0.08-0.01c-0.1,0-0.17,0.03-0.25,0.1l-9.88,7.79
			c-0.11,0.08-0.15,0.17-0.17,0.3c-0.02,0.14,0.01,0.24,0.1,0.34c0.09,0.12,0.19,0.18,0.32,0.19c0.15,0.03,0.25-0.03,0.34-0.11
			l9.87-7.77c0.13-0.11,0.17-0.21,0.18-0.32c0.02-0.13-0.02-0.23-0.1-0.35C429.74,457.61,429.64,457.57,429.53,457.56z"/>
		<path class="st0" d="M87.95,187.49c2.27,1.23,4.62,1.46,6.79,0.67c1.9-0.69,3.56-2.13,4.55-3.96c2-3.69,1.48-8.8-3.37-11.44
			c-4.86-2.63-9.42-0.27-11.42,3.43C82.54,179.81,83.1,184.86,87.95,187.49z"/>
		<path class="st0" d="M310.72,492.06c-0.13-0.23-0.32-0.44-0.55-0.64c-0.21-0.17-0.46-0.3-0.74-0.4c-0.25-0.08-0.51-0.11-0.79-0.06
			l-1.39,0.17c-0.32,0.05-0.6,0.15-0.87,0.3c-0.26,0.16-0.49,0.35-0.69,0.59c-0.18,0.21-0.31,0.45-0.38,0.72
			c-0.08,0.29-0.11,0.58-0.06,0.88l1.78,13.64c0.04,0.3,0.13,0.57,0.29,0.82c0.15,0.25,0.34,0.46,0.56,0.62
			c0.24,0.17,0.53,0.3,0.82,0.39c0.28,0.08,0.58,0.09,0.9,0.05l1.33-0.17c0.31-0.04,0.56-0.13,0.81-0.28
			c0.24-0.14,0.44-0.32,0.62-0.56c0.16-0.22,0.29-0.48,0.36-0.77c0.07-0.26,0.09-0.55,0.05-0.87l-1.78-13.61
			C310.94,492.57,310.86,492.31,310.72,492.06z"/>
		<path class="st0" d="M82.82,349.65c-0.35,0-0.7,0.07-1.03,0.19c-1.23,0.44-2.21,1.64-1.61,3.32l2.95,8.17l4.96-1.79l-2.95-8.18
			C84.71,350.14,83.78,349.65,82.82,349.65z"/>
		<path class="st0" d="M221.84,488.17c0.24,0.06,0.44,0.08,0.64,0.05c0.21-0.05,0.41-0.12,0.59-0.24c0.2-0.12,0.36-0.27,0.49-0.45
			c0.14-0.2,0.24-0.4,0.31-0.63l0.5-1.81c0.06-0.21,0.07-0.43,0.05-0.66c-0.02-0.23-0.08-0.44-0.19-0.64
			c-0.1-0.2-0.23-0.37-0.41-0.54c-0.13-0.12-0.32-0.22-0.54-0.28c-0.22-0.06-0.41-0.08-0.61-0.03c-0.23,0.05-0.43,0.12-0.62,0.25
			c-0.2,0.13-0.36,0.27-0.48,0.45c-0.15,0.19-0.25,0.39-0.31,0.6l-0.5,1.8c-0.06,0.23-0.08,0.47-0.06,0.69
			c0.02,0.23,0.08,0.43,0.19,0.65c0.1,0.2,0.23,0.36,0.4,0.52C221.43,488.01,221.62,488.1,221.84,488.17z"/>
		<path class="st0" d="M72.99,355.27c-0.33,0-0.71,0.07-1.18,0.24c-0.74,0.27-1.54,1.26-1.11,2.44l2.51,6.97l3.93-1.42l-2.51-6.97
			C74.5,356.17,74.18,355.27,72.99,355.27z"/>
		
			<rect x="172.56" y="463.64" transform="matrix(0.5142 -0.8577 0.8577 0.5142 -314.1005 377.6516)" class="st0" width="7.49" height="4.89"/>
		<path class="st0" d="M253.2,490.48c-0.18-0.23-0.4-0.42-0.67-0.58c-0.27-0.15-0.56-0.25-0.88-0.29l-0.02,0
			c-0.1-0.02-0.2-0.02-0.31-0.02c-0.18,0-0.38,0.03-0.57,0.08c-0.31,0.08-0.58,0.2-0.83,0.38c-0.23,0.16-0.41,0.36-0.57,0.61
			c-0.15,0.25-0.24,0.52-0.29,0.82l-1.88,13.8c-0.04,0.3-0.02,0.58,0.05,0.85c0.08,0.27,0.21,0.51,0.39,0.73
			c0.18,0.23,0.4,0.41,0.7,0.59c0.26,0.15,0.54,0.25,0.84,0.29c0.33,0.05,0.63,0.03,0.92-0.05c0.31-0.08,0.58-0.21,0.8-0.37
			c0.23-0.17,0.42-0.38,0.57-0.62c0.14-0.23,0.23-0.5,0.28-0.79l1.89-13.81c0.04-0.3,0.03-0.59-0.05-0.88
			C253.49,490.93,253.37,490.68,253.2,490.48z"/>
		<polygon class="st0" points="108.44,404.9 115.75,414.92 116.87,414.1 109.57,404.08 		"/>
		<path class="st0" d="M204.4,79.36c1.98-0.79,2.23-2.77,1.63-4.28c-0.54-1.37-1.93-2.66-4.06-1.81l-6.23,2.48l2.43,6.08
			L204.4,79.36z"/>
		<path class="st0" d="M496.06,330.75c-0.83-0.22-1.64-0.33-2.43-0.33c-1.58,0-3.04,0.43-4.32,1.29c-1.68,1.12-2.95,2.91-3.47,4.92
			c-1.06,4.06,0.65,8.9,5.98,10.3c5.35,1.39,9.2-1.97,10.27-6.03C503.12,336.92,501.39,332.15,496.06,330.75z"/>
		<path class="st0" d="M434.32,433.9c-0.02,0-0.05,0-0.07,0c-0.2,0.01-0.44,0.08-0.72,0.2c-0.21,0.1-0.43,0.26-0.64,0.48
			c-0.21,0.23-0.36,0.45-0.46,0.67c-0.11,0.27-0.16,0.5-0.17,0.72c-0.02,0.26,0.02,0.48,0.1,0.7c0.07,0.21,0.19,0.39,0.34,0.53
			l0.37,0.36c0.17,0.16,0.34,0.27,0.55,0.34c0.21,0.07,0.42,0.1,0.66,0.07c0.25-0.02,0.49-0.08,0.74-0.2
			c0.24-0.11,0.45-0.27,0.65-0.47c0.22-0.22,0.37-0.44,0.49-0.7c0.11-0.23,0.16-0.47,0.16-0.71c0.01-0.23-0.03-0.45-0.11-0.68
			c-0.07-0.2-0.19-0.38-0.36-0.55l-0.35-0.34c-0.17-0.15-0.35-0.26-0.55-0.33C434.75,433.93,434.54,433.9,434.32,433.9z"/>
		<path class="st0" d="M500.76,297.6c-0.36-0.04-0.71-0.06-1.06-0.06c-4.85,0-7.76,3.61-8.16,7.44c-0.43,4.17,2,8.7,7.5,9.27
			c5.43,0.55,8.8-3.36,9.23-7.54C508.69,302.61,506.24,298.16,500.76,297.6z"/>
		<polygon class="st0" points="181.3,94.59 175.15,90.11 175.54,97.83 		"/>
		<path class="st0" d="M283.47,28.35c-140.9,0-255.12,114.22-255.12,255.12c0,140.9,114.22,255.12,255.12,255.12
			c140.9,0,255.12-114.22,255.12-255.12C538.58,142.57,424.36,28.35,283.47,28.35z M514.64,265.54c0.04,0.87-0.25,1.68-0.82,2.29
			c-0.57,0.62-1.38,0.97-2.27,1.01l-7.66,0.3l0.43,11.05l7.66-0.3c0.04,0,0.08,0,0.12,0c1.72,0,3.17,1.47,3.24,3.33
			c0.07,1.84-1.26,3.28-3.1,3.35l-22.08,0.86c-0.05,0-0.09,0-0.13,0c-0.82,0-1.6-0.3-2.19-0.85c-0.62-0.58-0.98-1.38-1.01-2.25
			c-0.04-0.95,0.3-1.88,0.92-2.56c0.58-0.62,1.34-0.98,2.16-1.01l7.7-0.3l-0.43-11.05l-7.7,0.3c-1.78,0.08-3.28-1.27-3.35-3.06
			c-0.08-2.1,1.19-3.62,3.08-3.7l22.08-0.86c0.88-0.04,1.67,0.24,2.27,0.8C514.22,263.52,514.6,264.43,514.64,265.54z
			 M512.72,245.12c0.63,3.59,0.03,6.55-1.99,9.93c-0.52,0.8-1.33,1.35-2.24,1.54c-0.93,0.19-1.84,0-2.61-0.52
			c-1.45-1.15-1.74-3.23-0.7-4.69c1.14-1.55,1.42-2.93,1.04-5.12c-0.44-2.52-1.63-4.45-3.45-5.57c-1.64-1.02-3.77-1.36-5.99-0.97
			c-3.84,0.67-7.95,3.53-6.94,9.39c0.33,1.94,1.41,3.64,3.19,5.06c0.7,0.63,1.07,1.46,1.11,2.36c0.04,0.91-0.29,1.83-0.86,2.44
			c-0.59,0.6-1.47,1.08-2.5,1.08c-0.69,0-1.45-0.22-2.24-0.77c-3.4-2.58-4.4-6.21-4.91-9.09c-1.83-10.51,5.03-15.56,12.05-16.78
			c3.98-0.69,7.82-0.03,10.81,1.86C509.81,237.32,511.96,240.74,512.72,245.12z M495.71,207.31c2.97-0.55,5.85,0.6,8.03,3.22
			c3,3.59,4.12,9.34,2.62,13.37c-0.86,2.14-2.73,2.56-4.12,2.03c-1.37-0.52-2.43-2.01-1.78-3.85c0.57-2.08,0.21-5.65-1.24-7.37
			c-0.61-0.72-1.32-1.05-2.22-0.95c-2,0.27-2.04,2.62-1.93,6.44c0.13,4.72,0.28,10.59-5.87,12.29c-0.86,0.24-1.71,0.35-2.54,0.36
			c-2.52,0-4.83-1.09-6.68-3.18c-3.52-3.99-4.9-11.18-3.02-15.71c0.81-1.99,2.91-2.58,4.48-2.1c2.45,1.29,2.31,3.06,1.79,4.32
			c-0.71,2.28-0.59,6.84,1.29,8.94c0.77,0.86,1.73,1.17,2.96,0.92c1.54-0.64,1.48-3.32,1.41-6.42c-0.12-4.88-0.26-10.96,6.83-12.31
			H495.71z M483.47,167.63c0.81,0.3,1.5,0.96,1.98,1.89c0.4,0.78,0.49,1.64,0.23,2.43c-0.25,0.8-0.83,1.47-1.63,1.88l-6.81,3.52
			l5.07,9.83l6.82-3.52c1.55-0.81,3.57-0.1,4.45,1.59c0.85,1.64,0.24,3.51-1.39,4.35l-19.64,10.15c-0.48,0.25-0.99,0.37-1.51,0.37
			c-0.32,0-0.65-0.05-0.96-0.15c-0.81-0.26-1.48-0.83-1.88-1.61c-0.43-0.85-0.52-1.84-0.24-2.73c0.25-0.8,0.8-1.45,1.52-1.82
			l6.85-3.54l-5.07-9.83l-6.86,3.54c-1.61,0.83-3.5,0.24-4.33-1.35c-0.96-1.87-0.46-3.78,1.23-4.66l19.64-10.15
			C481.77,167.39,482.66,167.33,483.47,167.63z M464.72,144.63c3.86,0.7,7.32,2.97,9.72,6.37c2.09,2.98,2.99,6.56,2.45,9.82
			c-0.37,2.19-2.16,2.95-3.72,2.76c-1.61-0.22-3.11-1.53-2.89-3.59c0.32-2.01-0.06-3.99-1.01-5.34c-1.23-1.74-3.16-2.98-5.29-3.42
			c-2.28-0.46-4.57,0.03-6.48,1.38c-4.13,2.91-5.03,7.52-2.24,11.48c1.08,1.54,2.49,2.71,4.01,3.32l2.89-2.04l-2.89-4.1
			c-0.74-1.05-0.89-2.19-0.42-3.21c0.47-1.02,1.53-1.75,2.7-1.86c1.2-0.12,2.23,0.4,2.93,1.4l4.48,6.36
			c0.57,0.81,0.81,1.87,0.64,2.83c-0.14,0.8-0.54,1.46-1.13,1.88l-6.77,4.77c-0.58,0.41-1.25,0.6-2.09,0.6
			c-0.23,0-0.48-0.01-0.74-0.05l-0.12-0.02c-3.41-0.92-6.4-3.09-8.64-6.26c-2.51-3.56-3.57-7.29-3.08-10.8
			c0.53-3.71,2.81-7.09,6.61-9.76C456.94,144.83,460.88,143.93,464.72,144.63z M459.2,132.3c1.08,1.26,1.34,3.26-0.28,4.65
			l-16.84,14.49c-0.62,0.53-1.34,0.81-2.09,0.81c-0.34,0-0.69-0.06-1.04-0.18c-1.19-0.42-2.15-1.52-2.38-2.75
			c-0.21-1.12,0.2-2.21,1.11-3l16.83-14.49C456.14,130.43,458.1,131.03,459.2,132.3z M433.12,110.37c1.34-1.39,3.27-1.33,4.82,0.16
			c0.63,0.61,0.99,1.41,1,2.24c0.01,0.83-0.32,1.65-0.94,2.29l-5.33,5.53l7.98,7.68l5.32-5.53c1.24-1.28,3.35-1.25,4.73,0.07
			c1.33,1.28,1.36,3.24,0.1,4.56l-15.34,15.93c-0.64,0.67-1.49,1-2.33,1c-0.8,0-1.6-0.3-2.24-0.91c-1.37-1.32-1.49-3.44-0.26-4.72
			l5.35-5.56l-7.97-7.68l-5.35,5.56c-1.28,1.32-3.23,1.37-4.54,0.11c-0.79-0.76-1.22-1.66-1.24-2.58c-0.02-0.81,0.31-1.6,0.9-2.22
			L433.12,110.37z M404.25,85.54l8.63,5.7c4.89,3.23,5.01,8.26,3.64,11.58c-1.38,3.33-4.71,6.27-9.23,5.86l0.74,7.07
			c0.03,2.34-1.58,3.6-3.19,3.67c-0.05,0-0.11,0-0.16,0c-1.63,0-3.32-1.17-3.51-3.49l-0.26-9.87l-4.06-2.68l-3.44,5.2
			c-0.69,1.05-1.69,1.65-2.97,1.54c-1.27-0.08-2.45-0.85-3.01-1.97c-0.51-1.03-0.42-2.22,0.27-3.25l12.18-18.44
			C400.85,84.98,402.76,84.56,404.25,85.54z M380.85,73.04l12.51,6.24c1.18,0.59,1.9,1.61,1.98,2.8c0.07,1.19-0.53,2.39-1.54,3.06
			c-0.99,0.66-2.24,0.71-3.42,0.12l-9.3-4.64l-1.88,3.77l8.05,4.02c2,1,2.29,3.03,1.55,4.53c-0.75,1.5-2.55,2.48-4.56,1.49
			l-8.04-4.02l-1.88,3.77l9.89,4.94c1.21,0.6,1.95,1.67,2.02,2.91c0.07,1.2-0.51,2.39-1.49,3.04c-0.52,0.34-1.11,0.51-1.74,0.51
			c-0.58,0-1.19-0.15-1.8-0.45l-13.09-6.53c-0.79-0.39-1.37-1.05-1.64-1.86c-0.27-0.81-0.2-1.69,0.19-2.47l9.87-19.78
			C377.34,72.84,379.21,72.23,380.85,73.04z M349.07,64.16c0.56-1.54,2.19-2.72,4.27-1.97l17.3,6.24c2.1,0.76,2.64,2.72,2.09,4.26
			c-0.56,1.54-2.22,2.71-4.33,1.95l-5.31-1.92l-6.39,17.71c-0.57,1.56-1.83,2.24-3.1,2.24c-0.43,0-0.85-0.08-1.25-0.22
			c-1.57-0.57-2.76-2.23-2.01-4.32l6.39-17.71l-5.63-2.04c-1.21-0.44-1.76-1.24-2-1.83C348.79,65.81,348.78,64.96,349.07,64.16z
			 M320.55,76.27c2.34-1.48,3.79-0.47,4.64,0.62c1.62,1.76,5.62,3.94,8.37,3.36c1.12-0.23,1.87-0.92,2.27-2.09
			c0.22-1.65-2.13-2.94-4.85-4.43c-4.28-2.34-9.61-5.26-7.23-12.07v-0.01c1.03-2.86,3.45-4.76,6.81-5.34
			c4.61-0.79,10.15,1.1,12.88,4.42c1.42,1.82,0.84,3.65-0.3,4.58c-1.12,0.93-2.95,1.11-4.23-0.38c-1.51-1.53-4.76-3-6.99-2.62
			c-0.93,0.17-1.57,0.64-1.93,1.44c-0.77,1.86,1.25,3.07,4.6,4.89c4.14,2.25,9.3,5.05,7.7,11.23c-0.91,3.5-3.41,5.82-7.05,6.56
			c-0.83,0.17-1.71,0.25-2.61,0.25c-4.71,0-10-2.21-12.51-5.48C318.81,79.5,319.36,77.39,320.55,76.27z M312.66,56.73
			c0.17-1.17,0.87-2.09,1.94-2.52c1.19-0.47,2.63-0.27,3.61,0.5c0.89,0.7,1.3,1.78,1.13,2.97l-3.14,21.99
			c-0.27,1.9-1.78,2.79-3.29,2.79c-0.18,0-0.36-0.01-0.54-0.04c-1.65-0.23-3.17-1.58-2.86-3.7L312.66,56.73z M286.96,54.81
			c0.05-0.88,0.42-1.67,1.05-2.23c0.63-0.56,1.49-0.81,2.35-0.79l13.93,0.83c2.27,0.13,3.36,1.87,3.27,3.52
			c-0.1,1.67-1.33,3.3-3.66,3.15l-10.37-0.62l-0.25,4.2l8.97,0.53c1.31,0.08,2.07,0.7,2.48,1.21c0.52,0.64,0.77,1.48,0.72,2.34
			c-0.05,0.87-0.4,1.66-0.99,2.24c-0.46,0.45-1.36,0.99-2.61,0.91l-8.97-0.53l-0.25,4.2l11.03,0.65c2.32,0.14,3.46,1.98,3.36,3.64
			c-0.09,1.51-1.21,3.08-3.46,3.08c-0.1,0-0.2,0-0.3-0.01l-14.59-0.86c-0.87-0.05-1.67-0.43-2.23-1.07
			c-0.57-0.64-0.85-1.47-0.8-2.34L286.96,54.81z M460.27,283.46c0,97.65-79.16,176.81-176.8,176.81
			c-97.65,0-176.8-79.16-176.8-176.81c0-97.65,79.16-176.8,176.8-176.8C381.11,106.66,460.27,185.82,460.27,283.46z M436.3,428.5
			c0.88,0.17,1.72,0.63,2.44,1.33l1.29,1.25c0.6,0.59,1.04,1.25,1.29,1.96c0.31,0.9,0.42,1.86,0.33,2.86
			c-0.09,0.88-0.34,1.73-0.75,2.62c-0.43,0.89-0.97,1.67-1.66,2.38c-0.7,0.73-1.48,1.3-2.32,1.71c-0.83,0.42-1.69,0.68-2.55,0.78
			c-0.26,0.03-0.51,0.05-0.77,0.05c-0.71,0-1.4-0.11-2.05-0.34c-0.71-0.24-1.4-0.67-1.99-1.26l-1.19-1.16
			c-0.83-0.8-1.35-1.75-1.56-2.8c-0.05-0.24-0.08-0.48-0.11-0.72c-1,0.81-2.47,0.76-3.4-0.15c-1.05-1.03-1.08-2.65-0.09-3.66
			l2.15-2.21c-0.23-0.41-0.36-0.87-0.37-1.36c-0.01-0.77,0.27-1.49,0.81-2.04c0.59-0.61,1.31-0.91,2.07-0.92
			c0.45,0.04,0.95,0.11,1.37,0.33l2.11-2.17c0.97-1,2.59-1.04,3.62-0.05c0.98,0.96,1.06,2.44,0.27,3.46
			C435.59,428.39,435.94,428.43,436.3,428.5z M409.52,451.68l11.43-9c1.12-0.89,2.74-0.68,3.62,0.43c0.53,0.68,0.72,1.36,0.64,2.04
			c-0.08,0.68-0.42,1.29-0.96,1.72l-14.27,11.24c-0.47,0.37-1.04,0.55-1.59,0.55c-0.77,0-1.52-0.34-2.03-0.98l-4.09-5.19
			c-0.42-0.54-0.61-1.21-0.53-1.89c0.08-0.68,0.43-1.29,0.97-1.72l14.27-11.25c0.53-0.42,1.17-0.61,1.89-0.54
			c0.68,0.08,1.29,0.42,1.72,0.96l0.11,0.14c0.43,0.54,0.62,1.22,0.54,1.9c-0.08,0.68-0.43,1.3-0.97,1.72l-11.42,9.01L409.52,451.68
			z M408.79,459.83l17.41-13.73c1.12-0.88,2.75-0.68,3.62,0.43c0.42,0.54,0.61,1.21,0.53,1.9c-0.08,0.68-0.43,1.29-0.97,1.72
			l-17.41,13.73c-0.47,0.37-1.04,0.55-1.59,0.55c-0.76,0-1.52-0.34-2.02-0.98C407.49,462.33,407.68,460.71,408.79,459.83z
			 M123.71,428.78c-1.13,0.43-2.41,0.15-3.25-0.72c-0.69-0.73-0.98-1.74-0.76-2.72c0.22-0.98,0.9-1.78,1.83-2.15l9.08-3.57
			c1.69-0.65,3.57-0.24,4.81,1.06c1.24,1.3,1.58,3.21,0.85,4.85l-3.96,8.91c-0.41,0.92-1.24,1.57-2.23,1.74
			c-0.17,0.03-0.34,0.04-0.51,0.04c-0.81,0-1.6-0.33-2.17-0.93c-0.84-0.88-1.07-2.17-0.58-3.28l2.35-5.35L123.71,428.78z
			 M121.47,410.75l1.45-1.05c0.6-0.44,1.34-0.62,2.06-0.5c0.73,0.11,1.38,0.51,1.82,1.11l0.41,0.56c0.44,0.6,0.62,1.33,0.5,2.07
			s-0.51,1.38-1.11,1.82l-9.49,6.92c-0.48,0.35-1.05,0.54-1.63,0.54c-0.14,0-0.29-0.01-0.43-0.03c-0.73-0.11-1.38-0.51-1.82-1.11
			l-11.4-15.62c-0.44-0.6-0.62-1.33-0.5-2.07c0.11-0.73,0.51-1.38,1.11-1.82l9.5-6.92c0.6-0.44,1.35-0.61,2.07-0.5
			c0.73,0.12,1.38,0.51,1.82,1.11l0.4,0.55c0.44,0.61,0.62,1.34,0.5,2.08c-0.12,0.73-0.51,1.38-1.12,1.82l-1.44,1.05L121.47,410.75z
			 M253.37,53.95c0.63-0.73,1.5-1.09,2.08-1.13c1.49-0.11,2.52,0.82,3.16,1.44l8.72,10.13l7.39-11.68c0.79-1.15,2.25-1.65,3.64-1.27
			c1.37,0.37,2.3,1.53,2.4,3.03l1.61,21.85c0.16,2.3-1.33,3.61-2.89,3.72c-1.98,0.18-3.4-1.19-3.55-3.24l-0.88-12.04l-4.54,6.69
			c-1,1.42-2.09,1.77-2.84,1.81c-0.77,0.01-1.81-0.18-2.87-1.4l-4.77-5.78l0.87,11.82c0.16,2.27-1.61,3.63-3.35,3.75
			c-0.07,0.01-0.15,0.01-0.22,0.01c-1.49,0-3.01-1.08-3.17-3.26l-1.6-21.86C252.49,55.54,252.77,54.65,253.37,53.95z M215.07,62.81
			c0.43-0.73,1.13-1.26,1.98-1.49l13.5-3.59c1.28-0.33,2.5-0.05,3.33,0.79c0.84,0.85,1.18,2.14,0.87,3.31
			c-0.31,1.16-1.22,2.02-2.49,2.36l-10.05,2.67l1.08,4.07l8.69-2.31c2.15-0.57,3.73,0.76,4.16,2.38c0.43,1.61-0.27,3.55-2.43,4.12
			l-8.69,2.31l1.08,4.07l10.68-2.84c2.24-0.59,3.9,0.79,4.33,2.4c0.41,1.53-0.24,3.46-2.61,4.1l-14.14,3.76
			c-0.29,0.08-0.57,0.11-0.85,0.11c-1.43,0-2.7-0.94-3.09-2.4l-5.67-21.36C214.54,64.41,214.65,63.54,215.07,62.81z M190.02,71.22
			l9.61-3.83c5.47-2.18,9.65,0.6,11.6,3.63c1.94,3.03,2.46,7.46-0.46,10.92l6.22,3.44c1.93,1.31,2.05,3.35,1.2,4.71
			c-0.89,1.42-2.89,2.23-4.96,1.03l-8.26-5.42l-4.53,1.81l2.31,5.79c0.83,2.08-0.35,3.81-1.95,4.44c-0.42,0.17-0.88,0.26-1.33,0.26
			c-1.21,0-2.42-0.63-3.01-2.11l-8.18-20.53C187.62,73.69,188.38,71.87,190.02,71.22z M170.22,81.02c1.16-0.62,2.52-0.51,3.64,0.31
			l20.24,13.63c1.05,0.68,1.62,1.77,1.54,2.97c-0.09,1.28-0.91,2.5-2.05,3.03c-1.04,0.48-2.19,0.35-3.17-0.35l-2.74-1.85
			l-11.63,6.54l0.19,3.3c0.12,1.64-0.97,3.02-2.92,3.67l-0.12,0.04h-0.13c-1.74,0-3.57-1.05-3.73-3.4l-0.97-24.52
			C168.31,82.96,169.02,81.67,170.22,81.02z M126.89,111.78c1.07-0.53,2.27-0.45,3.29,0.23l12.7,7.9l-4.01-14.86
			c-0.44-1.45-0.11-2.86,0.86-3.65c0.97-0.78,2.35-0.82,3.69-0.09l13.62,7.41l-4.75-14.22c-0.68-2.1,0.57-3.78,2.1-4.3
			c1.47-0.5,3.42-0.02,4.2,2.19l6.94,21.19c0.78,2.05,0.96,3.59-0.58,4.82c-1.44,1.14-2.68,0.62-4.12,0.02l-0.21-0.09l-13.2-6.98
			l3.84,14.08c0.42,1.56,0.74,3.32-0.85,4.58c-0.61,0.48-1.23,0.67-1.85,0.67c-0.99,0-1.96-0.48-2.83-1.03l-19.09-11.95
			c-1.15-0.75-1.74-1.82-1.67-3.01C125.01,113.47,125.78,112.34,126.89,111.78z M106.45,133.46l12.46-13.55
			c0.88-0.96,1.84-1.17,2.48-1.17c0,0,0.01,0,0.01,0c0.82,0,1.61,0.32,2.24,0.9c0.63,0.58,1.02,1.35,1.08,2.17
			c0.05,0.64-0.07,1.62-0.96,2.58l-3.82,4.16l13.87,12.75c0.92,0.85,1.31,2,1.05,3.16c-0.27,1.22-1.21,2.25-2.4,2.62
			c-0.31,0.1-0.62,0.15-0.94,0.15c-0.81,0-1.62-0.32-2.29-0.95l-13.87-12.75l-4.06,4.42c-0.85,0.92-1.99,1.3-3.13,1.06
			c-1.18-0.26-2.17-1.18-2.53-2.32C105.31,135.56,105.6,134.39,106.45,133.46z M92.25,152.39l8.03-11.05
			c1.23-1.69,3.15-2.08,4.69-0.96c0.68,0.49,1.17,1.27,1.34,2.13c0.19,0.96-0.03,1.94-0.63,2.76l-6.18,8.5l3.69,2.69l5.36-7.37
			c1.09-1.5,3.53-1.89,5.02-0.82c0.59,0.43,0.99,1.11,1.11,1.91c0.16,0.98-0.1,2.05-0.69,2.86l-5.36,7.37l5.95,4.33
			c1.49,1.08,1.81,2.98,0.76,4.44c-0.64,0.87-1.49,1.44-2.4,1.58c-0.16,0.02-0.31,0.03-0.47,0.03c-0.65,0-1.3-0.21-1.85-0.62
			l-17.89-13C91.22,156.07,91.01,154.1,92.25,152.39z M78.83,172.63c3.71-6.09,11.62-10.47,20.29-5.78
			c8.55,4.63,9.5,13.57,6.02,20.01c-1.86,3.81-5.1,6.68-8.89,7.9c-1.35,0.43-2.73,0.65-4.13,0.65c-2.46,0-4.96-0.66-7.39-1.98
			C76.02,188.71,75.17,179.4,78.83,172.63z M70.57,194.64c1.99-1.16,3.72-0.35,4.5,0.9c0.77,1.25,0.7,3.07-0.94,4.14
			c-1.72,1.29-3.61,4.33-3.51,6.58c0.04,0.95,0.43,1.64,1.18,2.11c1.75,0.99,3.21-0.83,5.45-3.91c2.78-3.81,6.22-8.55,12.14-6.15
			c3.34,1.36,5.32,4.15,5.57,7.85c0.36,5.3-2.93,11.84-7.18,14.27c-0.6,0.35-1.22,0.5-1.81,0.5c-1.24,0-2.38-0.67-3.02-1.56
			c-1.16-2.52,0.03-3.83,1.22-4.51c1.95-1.38,4.63-5.06,4.43-7.85c-0.08-1.15-0.66-1.97-1.77-2.53c-1.59-0.44-3.19,1.72-5.02,4.22
			c-2.88,3.94-6.46,8.84-12.91,5.57l0,0c-2.7-1.4-4.26-4.04-4.39-7.45C64.31,202.14,66.92,196.91,70.57,194.64z M53.78,251.19
			c0.3-1.65,0.91-2.1,2.04-2.9l0.21-0.14l16.09-8.71l-12.57-2.27c-0.89-0.16-1.75-0.73-2.31-1.54c-0.5-0.72-0.69-1.53-0.55-2.29
			c0.32-1.78,2.36-3.2,4.07-2.9l21.55,3.89c1.19,0.21,2.66,0.94,2.94,3.2l0.02,0.12l-0.02,0.12c-0.27,1.51-0.78,2.3-2.21,3.37
			l-16.4,8.73l12.47,2.25c1.04,0.18,1.86,0.67,2.37,1.41c0.47,0.68,0.64,1.54,0.48,2.42c-0.16,0.9-0.63,1.69-1.33,2.2
			c-0.57,0.42-1.27,0.64-2.01,0.64c-0.23,0-0.47-0.02-0.71-0.07l-21.16-3.82c-0.79-0.14-1.93-0.44-2.56-1.35
			C53.74,252.95,53.61,252.15,53.78,251.19z M53.94,270.2l22.24-10.03c1.14-0.54,2.35-0.44,3.33,0.25c1.04,0.75,1.65,2.09,1.5,3.35
			c-0.13,1.13-0.85,2.04-1.97,2.51l-3.01,1.35l-0.56,13.34l2.9,1.58c1.46,0.77,2.06,2.42,1.58,4.42l-0.1,0.23
			c-0.64,1.04-1.76,1.85-3.08,1.85c-0.56,0-1.15-0.14-1.77-0.47l-21.36-12.09c-1.25-0.7-1.97-1.99-1.88-3.35
			C51.85,271.82,52.66,270.72,53.94,270.2z M52.82,308.14c-2.17-4.15-2.05-10,0.28-13.61c1.29-1.91,3.22-1.92,4.46-1.11
			c1.23,0.8,1.95,2.47,0.92,4.14c-1,1.91-1.41,5.47-0.36,7.45c0.44,0.84,1.08,1.29,1.96,1.4c1.98,0.19,2.54-2.13,3.25-5.87
			c0.88-4.63,1.97-10.4,8.34-10.76c3.63-0.19,6.59,1.48,8.4,4.71c2.59,4.64,2.42,11.96-0.38,15.97c-1.22,1.77-3.39,1.9-4.81,1.1
			c-2.12-1.78-1.61-3.47-0.83-4.6c1.18-2.08,2.02-6.56,0.64-8.99c-0.57-1-1.45-1.5-2.69-1.53c-1.64,0.3-2.15,2.93-2.74,5.97
			c-0.91,4.71-2.04,10.56-8.95,10.56c-0.11,0-0.22,0-0.33-0.01h-0.01C56.94,312.88,54.4,311.16,52.82,308.14z M61.88,343.45
			c-0.97,0-1.85-0.38-2.49-1.09c-0.81-0.9-1.1-2.22-0.72-3.36c0.37-1.13,1.33-1.95,2.65-2.22l13.78-2.92c3.29-0.69,4.39-4,3.77-6.9
			c-0.58-2.76-2.7-5.25-6.18-4.5l-13.79,2.92c-1.29,0.28-2.51-0.1-3.33-1.02c-0.81-0.91-1.1-2.22-0.74-3.34
			c0.37-1.13,1.34-1.94,2.67-2.22l13.79-2.92c4.23-0.89,8.1,0.31,10.87,3.4c3.22,3.58,4.38,9.07,2.88,13.65
			c-1.29,3.95-4.33,6.61-8.56,7.51l-13.79,2.92C62.43,343.42,62.15,343.45,61.88,343.45z M71.34,372.52c-0.46,0-0.9-0.1-1.31-0.29
			c-0.74-0.35-1.32-1-1.61-1.83L64.7,360.1c-0.89-2.47-0.84-4.85,0.15-6.88c0.91-1.87,2.57-3.32,4.67-4.08
			c1.73-0.63,3.34-0.66,4.91-0.1c0.44-2.83,2.19-4.91,5.01-5.92c2.34-0.84,4.75-0.78,6.79,0.2c2.2,1.05,3.9,3.08,4.91,5.89
			l4.14,11.5c0.3,0.82,0.27,1.69-0.08,2.44c-0.36,0.76-1.02,1.35-1.87,1.66l-20.81,7.5C72.13,372.44,71.73,372.52,71.34,372.52z
			 M85.3,386.6c0-3.42,2.77-6.19,6.19-6.19s6.19,2.77,6.19,6.19c0,3.42-2.77,6.19-6.19,6.19S85.3,390.02,85.3,386.6z M104.11,419.72
			l-2.9,2.12c-0.6,0.44-1.32,0.62-2.07,0.5c-0.73-0.11-1.38-0.51-1.82-1.11l-0.28-0.39c-0.9-1.24-0.63-2.98,0.61-3.89l2.9-2.11
			l-4.95-6.79c-0.44-0.6-0.62-1.33-0.5-2.07c0.11-0.73,0.51-1.38,1.11-1.82c0.6-0.44,1.34-0.61,2.07-0.5
			c0.73,0.12,1.38,0.51,1.82,1.11l13.45,18.45c0.9,1.24,0.63,2.98-0.61,3.89c-0.48,0.35-1.05,0.54-1.64,0.54
			c-0.15,0-0.29-0.01-0.44-0.03c-0.73-0.12-1.38-0.51-1.82-1.11L104.11,419.72z M125.45,451.98c-0.02,0-0.05,0-0.07,0
			c-0.78-0.02-1.51-0.34-2.04-0.9l-12.18-12.74c-0.54-0.56-0.82-1.3-0.81-2.08c0.02-0.78,0.34-1.5,0.9-2.04l3.65-3.5
			c1.17-1.11,3.02-1.08,4.13,0.09c0.54,0.56,0.82,1.3,0.81,2.08c-0.02,0.78-0.34,1.5-0.9,2.04l-1.65,1.58l8.09,8.46l15.38-14.72
			c0.57-0.54,1.29-0.8,2.09-0.81c0.78,0.02,1.51,0.34,2.04,0.9c0.6,0.63,0.89,1.37,0.87,2.15c-0.02,0.78-0.34,1.5-0.9,2.04
			l-1.84,1.76l0.09,0.1c1.11,1.16,1.07,3.01-0.09,4.13c-0.55,0.53-1.26,0.81-2.02,0.81c-0.02,0-0.04,0-0.07,0
			c-0.78-0.02-1.5-0.34-2.05-0.9l-0.09-0.09l-11.33,10.82C126.91,451.69,126.2,451.98,125.45,451.98z M152.67,472.11l-1.73,2.16
			l-19.19-15.32c-0.58-0.46-0.94-1.12-1.02-1.86s0.13-1.46,0.59-2.04c0.46-0.58,1.12-0.94,1.86-1.02c0.73-0.08,1.46,0.13,2.04,0.59
			l6.13,4.89l3.11-3.89c0.51-0.64,1.24-1.04,2.05-1.13c0.82-0.09,1.61,0.14,2.25,0.65c0.64,0.51,1.04,1.23,1.13,2.05
			c0.09,0.81-0.14,1.61-0.65,2.25l-3.11,3.89l6.13,4.89c0.58,0.46,0.94,1.12,1.02,1.86S153.14,471.53,152.67,472.11z M152.97,462.59
			c-0.96-0.77-1.41-1.99-1.16-3.19l2.16-10.8l-10.05,4.5c-1.13,0.51-2.42,0.34-3.38-0.43c-0.9-0.72-1.35-1.82-1.2-2.96
			c0.14-1.14,0.86-2.1,1.9-2.57l11.98-5.38c1.88-0.85,4.05-0.57,5.65,0.71c1.61,1.29,2.36,3.33,1.95,5.35l-2.59,12.87
			c-0.22,1.12-1,2.03-2.09,2.42c-0.37,0.13-0.75,0.2-1.13,0.2C154.28,463.3,153.56,463.06,152.97,462.59z M178.9,488.1
			c-0.52,0.86-1.44,1.34-2.38,1.34c-0.48,0-0.97-0.13-1.42-0.39l-18.69-11.19c-0.64-0.38-1.09-0.99-1.27-1.7
			c-0.18-0.72-0.07-1.46,0.31-2.1c0.38-0.63,0.98-1.08,1.7-1.26c0.72-0.18,1.47-0.07,2.1,0.31l18.68,11.21
			c0.63,0.38,1.08,0.98,1.26,1.7C179.39,486.72,179.28,487.46,178.9,488.1z M179.69,479.08l-16.66-9.99
			c-1.31-0.79-1.73-2.49-0.95-3.8c0.44-0.74,1.04-1.19,1.76-1.37c0.73-0.19,1.46-0.07,2.1,0.31l1.04,0.62l3.85-6.44l-1.04-0.62
			c-0.63-0.38-1.08-0.99-1.26-1.7c-0.18-0.72-0.07-1.46,0.31-2.09c0.86-1.44,2.56-1.86,3.87-1.08l16.67,9.99
			c1.31,0.78,1.74,2.49,0.95,3.8c-0.46,0.76-1.07,1.21-1.78,1.39c-0.72,0.18-1.46,0.07-2.09-0.31l-0.81-0.48l-3.85,6.42l0.81,0.49
			c1.31,0.78,1.73,2.49,0.95,3.79c-0.44,0.74-1.05,1.19-1.77,1.37c-0.22,0.06-0.45,0.08-0.68,0.08
			C180.61,479.47,180.12,479.33,179.69,479.08z M206.88,500.37l-1.09,2.53l-22.55-9.7c-1.4-0.6-2.06-2.24-1.45-3.64
			c0.29-0.68,0.83-1.21,1.52-1.48c0.69-0.28,1.44-0.26,2.12,0.03l20.01,8.61C206.84,497.33,207.49,498.97,206.88,500.37z
			 M208.55,486l-14.22-6.12l-0.62,1.45l14.23,6.13c0.68,0.29,1.2,0.83,1.48,1.52c0.27,0.69,0.26,1.44-0.03,2.12
			c-0.34,0.79-0.88,1.31-1.56,1.59c-0.33,0.13-0.68,0.2-1.03,0.2c-0.37,0-0.74-0.08-1.09-0.23l-17.43-7.5
			c-1.41-0.6-2.06-2.24-1.45-3.64l5.86-13.62c0.6-1.4,2.24-2.06,3.64-1.45l17.43,7.5c1.4,0.6,2.05,2.24,1.45,3.64l-0.05,0.11
			c-0.6,1.4-2.23,2.06-3.64,1.45l-14.23-6.11l-0.71,1.66l14.22,6.12c1.4,0.6,2.05,2.24,1.45,3.64
			C211.58,485.96,209.96,486.6,208.55,486z M229.08,508.72c-0.47,0.27-0.99,0.4-1.52,0.4c-0.28,0-0.56-0.04-0.83-0.11l-3.26-0.9
			c-1.49-0.41-2.36-1.96-1.95-3.45c0.2-0.72,0.67-1.32,1.32-1.69c0.65-0.37,1.41-0.46,2.13-0.26l0.67,0.19l0.49-1.78l-4.37-1.22
			l-1.24,4.47c-0.2,0.72-0.67,1.32-1.32,1.69c-0.65,0.37-1.41,0.45-2.13,0.26l-0.2-0.06c-1.49-0.41-2.36-1.96-1.95-3.45l1.24-4.47
			l-2.22-0.62c-0.72-0.2-1.32-0.67-1.69-1.32c-0.37-0.65-0.46-1.41-0.26-2.13c0.2-0.74,0.67-1.34,1.32-1.71
			c0.65-0.37,1.4-0.46,2.13-0.26l4.17,1.16c-0.79-0.27-1.52-0.66-2.17-1.18c-0.75-0.57-1.36-1.29-1.81-2.12
			c-0.45-0.79-0.74-1.68-0.86-2.62c-0.12-0.94-0.05-1.9,0.22-2.87l0.63-2.27c0.27-0.97,0.7-1.84,1.29-2.58
			c0.59-0.74,1.29-1.35,2.09-1.81c0.8-0.46,1.69-0.76,2.64-0.88c0.93-0.12,1.9-0.04,2.88,0.23l0.57,0.15
			c0.99,0.29,1.86,0.72,2.59,1.3c0.77,0.61,1.36,1.3,1.81,2.12c0.45,0.81,0.74,1.69,0.86,2.62c0.12,0.95,0.05,1.89-0.22,2.87
			l-0.63,2.28c-0.26,0.96-0.7,1.82-1.29,2.57c-0.59,0.75-1.29,1.35-2.09,1.81c-0.8,0.46-1.69,0.76-2.64,0.88
			c-0.81,0.1-1.64,0.06-2.46-0.12l6.58,1.82l3.74-13.52c0.2-0.72,0.67-1.32,1.32-1.69c0.64-0.37,1.4-0.46,2.12-0.26l0.19,0.05
			c0.73,0.2,1.33,0.67,1.7,1.32c0.37,0.65,0.46,1.41,0.26,2.13l-6.41,23.13C230.31,507.65,229.8,508.32,229.08,508.72z
			 M233.38,510.75c-0.25,0-0.51-0.03-0.77-0.11c-0.75-0.21-1.37-0.69-1.75-1.37c-0.38-0.67-0.48-1.46-0.27-2.21l6.46-23.31
			c0.2-0.72,0.67-1.32,1.32-1.69c0.65-0.37,1.41-0.46,2.13-0.26l0.2,0.06c1.49,0.42,2.36,1.96,1.95,3.45l-6.47,23.31
			C235.83,509.91,234.65,510.75,233.38,510.75z M266,512.96c-0.2,1.46-1.46,2.52-2.89,2.52c-0.13,0-0.26-0.01-0.4-0.03
			c-0.77-0.11-1.46-0.5-1.93-1.13c-0.47-0.62-0.67-1.39-0.57-2.16l1.55-11.38l-3.3-0.46l-0.87,6.36c-0.15,1.11-0.5,2.1-1.07,3.03
			c-0.56,0.9-1.26,1.66-2.09,2.27c-0.82,0.61-1.77,1.06-2.8,1.33c-1.06,0.27-2.14,0.33-3.25,0.17c-1.09-0.14-2.13-0.49-3.06-1.03
			c-0.92-0.54-1.71-1.22-2.34-2.03c-0.62-0.8-1.08-1.73-1.38-2.74c-0.3-1.04-0.37-2.12-0.22-3.21l1.89-13.8
			c0.15-1.08,0.51-2.1,1.07-3.02c0.56-0.91,1.26-1.68,2.07-2.28c0.83-0.62,1.77-1.06,2.8-1.33c1.04-0.27,2.12-0.32,3.23-0.18
			c1.14,0.16,2.14,0.49,3.07,1.03c0.94,0.56,1.73,1.25,2.35,2.04c0.63,0.81,1.1,1.73,1.4,2.75c0.3,1.01,0.37,2.09,0.22,3.19
			l-0.27,1.96l3.31,0.45l0.95-6.97c0.11-0.77,0.51-1.46,1.13-1.93c0.62-0.47,1.37-0.66,2.16-0.57c0.77,0.11,1.46,0.5,1.93,1.12
			c0.47,0.62,0.67,1.39,0.57,2.16L266,512.96z M287.71,516.23l-13.53-0.22c-1.56-0.03-2.81-1.31-2.79-2.87v0l0.39-23.96
			c0.01-0.75,0.32-1.46,0.86-1.99c0.54-0.53,1.25-0.79,2.01-0.8l10.7,0.17c0.76,0.01,1.47,0.32,1.99,0.86
			c0.52,0.54,0.8,1.25,0.79,2.01L287.71,516.23z M298.25,500.87c-0.54,0.53-1.21,0.85-2.02,0.79l-0.22,0l-0.2,12
			c-0.01,0.76-0.32,1.46-0.86,1.99c-0.53,0.51-1.23,0.79-1.96,0.79c-0.02,0-0.04,0-0.06,0l-0.21,0c-0.76-0.01-1.46-0.32-1.99-0.86
			c-0.52-0.54-0.8-1.26-0.79-2.01l0.39-24.24c0.03-1.54,1.3-2.78,2.83-2.78c0.02,0,0.03,0,0.04,0l0.22,0.01
			c1.55,0.02,2.8,1.31,2.78,2.87l-0.11,6.59l0.23,0.01c1.55,0.03,2.8,1.31,2.78,2.87C299.11,499.63,298.8,500.34,298.25,500.87z
			 M318.37,508.9c-0.27,1-0.72,1.93-1.32,2.74c-0.61,0.83-1.37,1.53-2.26,2.08c-0.92,0.56-1.92,0.91-3,1.05l-1.44,0.19
			c-0.38,0.05-0.74,0.07-1.1,0.07c-0.73,0-1.45-0.1-2.15-0.29c-1.05-0.29-1.99-0.75-2.8-1.38c-0.82-0.63-1.51-1.4-2.05-2.3
			c-0.56-0.92-0.9-1.92-1.06-3.06l-1.78-13.63c-0.14-1.12-0.06-2.2,0.24-3.22c0.31-1.02,0.77-1.95,1.39-2.75
			c0.65-0.83,1.44-1.52,2.35-2.05c0.91-0.55,1.95-0.9,3.07-1.04l1.58-0.21c1.1-0.14,2.15-0.05,3.13,0.26c1,0.32,1.9,0.8,2.66,1.44
			c0.78,0.63,1.42,1.39,1.96,2.32c0.52,0.93,0.86,1.93,0.99,2.99l1.78,13.63C318.73,506.82,318.66,507.88,318.37,508.9z
			 M324.48,513.12c-0.14,0.02-0.27,0.03-0.41,0.03c-1.54,0-2.88-1.14-3.08-2.71l-3.06-23.48c-0.22-1.7,0.98-3.27,2.68-3.49
			c1.72-0.21,3.27,0.99,3.49,2.69l3.06,23.48C327.38,511.33,326.18,512.9,324.48,513.12z M333.89,483.65c0.38-2,1.89-3.63,3.84-4.17
			c1.97-0.53,4.11,0.11,5.44,1.66l9.23,10.68c0.72,0.83,0.96,1.96,0.64,3.01c-0.32,1.05-1.15,1.85-2.21,2.14
			c-1.17,0.33-2.4-0.04-3.21-0.95l-7.75-8.68l-2.32,11.4c-0.23,1.17-1.13,2.12-2.29,2.44c-0.28,0.07-0.56,0.11-0.83,0.11
			c-0.79,0-1.55-0.3-2.15-0.85c-0.81-0.75-1.17-1.84-0.97-2.92L333.89,483.65z M356.04,505.41L335,511.1
			c-0.24,0.06-0.48,0.1-0.72,0.1c-0.48,0-0.95-0.12-1.37-0.37c-0.64-0.37-1.1-0.96-1.29-1.68c-0.4-1.47,0.48-2.99,1.94-3.39
			l21.04-5.7c0.71-0.19,1.46-0.09,2.1,0.27c0.45,0.26,0.81,0.63,1.05,1.07h0.08l0.16,0.6C358.39,503.49,357.52,505.01,356.04,505.41
			z M376.34,496.48c-0.28,0.7-0.81,1.24-1.51,1.54l-9.15,3.87c-0.35,0.15-0.72,0.22-1.08,0.22c-1.09,0-2.13-0.64-2.58-1.7
			l-9.35-22.11c-0.6-1.42,0.06-3.07,1.49-3.67l8.65-3.65c0.69-0.29,1.45-0.3,2.14-0.02c0.69,0.28,1.23,0.82,1.52,1.5
			c0.62,1.49-0.04,3.13-1.46,3.72l-5.63,2.38l2.34,5.52l5.05-2.14c1.43-0.6,3.07,0.07,3.66,1.49c0.6,1.42-0.07,3.07-1.49,3.67
			l-5.05,2.14l2.63,6.21l6.11-2.59c0.7-0.28,1.45-0.3,2.14-0.02c0.7,0.28,1.24,0.81,1.53,1.5l0.07,0.17
			C376.61,495.15,376.59,495.85,376.34,496.48z M385.61,492.73c-0.28,0.69-0.81,1.23-1.5,1.53l-0.25,0.11
			c-0.35,0.15-0.72,0.22-1.09,0.22c-0.35,0-0.71-0.07-1.05-0.21c-0.69-0.28-1.23-0.82-1.52-1.5l-3.76-8.9l-1.72,0.73
			c-0.69,0.29-1.44,0.3-2.14,0.02c-0.69-0.28-1.23-0.81-1.52-1.5l-0.1-0.23c-0.29-0.68-0.3-1.45-0.01-2.14
			c0.28-0.69,0.81-1.23,1.5-1.52l1.72-0.72l-3.42-8.11c-0.29-0.68-0.3-1.44-0.02-2.14c0.28-0.69,0.81-1.23,1.5-1.52l0.25-0.11
			c1.42-0.59,3.07,0.07,3.67,1.49l9.47,22.38C385.89,491.28,385.9,492.04,385.61,492.73z M412.01,478.61l-18.76,11.09
			c-0.43,0.26-0.91,0.39-1.4,0.39c-0.23,0-0.47-0.03-0.7-0.09c-0.71-0.18-1.32-0.64-1.69-1.28c-0.78-1.31-0.34-3.02,0.97-3.79
			l4.18-2.47l-4.69-7.93c-0.78-1.32-0.34-3.02,0.98-3.79l0.38-0.23c1.31-0.78,3.02-0.34,3.79,0.98l4.69,7.93l3.49-2.06l-8.16-16.6
			l-12.48,7.38c-1.3,0.77-3.02,0.34-3.79-0.97c-0.42-0.71-0.53-1.45-0.34-2.17c0.18-0.72,0.63-1.32,1.27-1.7l15.41-9.11
			c0.64-0.38,1.38-0.48,2.1-0.3c0.71,0.18,1.32,0.64,1.69,1.28l1.04,1.76l8.52,17.32l0.67-0.4c0.64-0.37,1.37-0.47,2.1-0.3
			c0.71,0.18,1.32,0.64,1.69,1.27C413.76,476.14,413.32,477.84,412.01,478.61z M434.77,460.9c-0.4,0.7-0.94,1.31-1.6,1.83
			l-9.85,7.77c-0.64,0.52-1.37,0.89-2.15,1.12c-0.55,0.17-1.11,0.26-1.68,0.26c-0.21,0-0.42-0.01-0.63-0.04
			c-0.77-0.09-1.48-0.3-2.19-0.67c-0.72-0.39-1.34-0.91-1.86-1.57c-0.54-0.7-0.89-1.41-1.09-2.18c-0.19-0.74-0.24-1.51-0.14-2.28
			c0.11-0.77,0.36-1.5,0.74-2.19c0.38-0.68,0.91-1.3,1.58-1.84l9.87-7.77c0.64-0.51,1.37-0.89,2.16-1.11
			c0.78-0.22,1.54-0.28,2.31-0.21c0.74,0.06,1.49,0.29,2.2,0.67c0.7,0.36,1.33,0.89,1.86,1.57c0.52,0.66,0.89,1.39,1.09,2.16
			c0.19,0.78,0.24,1.53,0.14,2.3C435.42,459.49,435.16,460.22,434.77,460.9z M457.06,439.88l-0.37,0.38
			c-0.53,0.55-1.29,0.81-2.03,0.77c-0.76-0.06-1.44-0.45-1.89-1.06l-2.06-2.86l-10.49,10.81c-0.48,0.49-1.11,0.77-1.8,0.78
			c-0.02,0-0.03,0-0.04,0c-0.67,0-1.31-0.26-1.79-0.73c-1.01-0.98-1.04-2.61-0.05-3.62l10.33-10.64l-11.29-10.96
			c-0.49-0.48-0.77-1.12-0.78-1.8c-0.01-0.69,0.25-1.33,0.73-1.82l0.66-0.68c0.99-1.01,2.61-1.03,3.62-0.05l2.05,1.98l0.34-0.35
			c0.48-0.49,1.12-0.77,1.8-0.77c0.02,0,0.03,0,0.04,0c0.67,0,1.31,0.26,1.79,0.72l0.38,0.37c0.49,0.47,0.77,1.11,0.78,1.8
			c0.01,0.68-0.25,1.34-0.73,1.83v0l-0.33,0.34l8.28,8.03l3.09,4.26C458.03,437.61,457.93,438.99,457.06,439.88z M477.9,413.31
			l-12.92,17.48c-0.44,0.6-1.1,0.99-1.84,1.1c-0.14,0.02-0.28,0.03-0.42,0.03c-0.59,0-1.17-0.19-1.65-0.55
			c-0.6-0.44-0.99-1.09-1.11-1.83c-0.11-0.74,0.07-1.48,0.51-2.08l0.67-0.9l-6.58-4.86c-1.24-0.92-1.5-2.67-0.59-3.91l0.23-0.3
			c0.44-0.6,1.09-0.99,1.83-1.1c0.73-0.11,1.48,0.07,2.08,0.52l6.57,4.86l0.61-0.83l-6.57-4.86c-0.6-0.44-0.99-1.09-1.1-1.83
			c-0.11-0.74,0.07-1.48,0.51-2.08l0.22-0.29c0.44-0.6,1.09-0.99,1.83-1.1c0.73-0.1,1.47,0.07,2.08,0.52l6.58,4.86l0.48-0.65
			l-13.93-12.06l-8.6,11.64c-0.92,1.23-2.67,1.5-3.91,0.58c-0.63-0.47-1.03-1.12-1.14-1.86c-0.11-0.74,0.07-1.48,0.51-2.08
			l10.6-14.36c0.92-1.23,2.67-1.5,3.91-0.59l1.63,1.2l14.55,12.59l0.44-0.6c0.44-0.6,1.09-0.99,1.83-1.11
			c0.73-0.11,1.48,0.07,2.08,0.52C478.55,410.32,478.81,412.07,477.9,413.31z M477.62,392.79c-3.42,0-6.19-2.77-6.19-6.19
			c0-3.42,2.77-6.19,6.19-6.19c3.42,0,6.19,2.77,6.19,6.19C483.81,390.02,481.04,392.79,477.62,392.79z M500.32,365.58
			c-0.31,0.76-0.92,1.36-1.71,1.67c-0.79,0.31-1.64,0.31-2.41,0l-17.3-7.06l-3.7,9.05c-0.54,1.33-1.57,2.2-2.82,2.37
			c-0.15,0.02-0.3,0.03-0.45,0.03c-1.01,0-1.98-0.46-2.61-1.27c-0.77-0.99-0.89-2.32-0.34-3.67l4.87-11.92
			c0.33-0.81,0.93-1.45,1.69-1.79c0.78-0.36,1.67-0.36,2.49-0.02l20.58,8.4c0.77,0.31,1.37,0.92,1.71,1.7
			C500.66,363.86,500.66,364.76,500.32,365.58z M508.44,343.01c-1.82,5.73-6.85,10.99-14.09,10.99c-1.34,0-2.75-0.18-4.24-0.57
			c-9.4-2.47-12.44-10.91-10.59-17.99c0.9-4.14,3.37-7.7,6.76-9.78c3.33-2.04,7.31-2.53,11.49-1.44c4.51,1.18,7.87,3.82,9.73,7.63
			C509.09,335.14,509.44,339.21,508.44,343.01z M514.87,307.82c-1.03,6.59-6.03,13.21-14.68,13.21c-0.6,0-1.21-0.03-1.85-0.1
			c-9.67-1-13.97-8.88-13.22-16.17c0.26-4.23,2.15-8.13,5.19-10.71c2.98-2.53,6.82-3.62,11.15-3.18
			C511.3,291.89,515.66,300.17,514.87,307.82z"/>
		<path class="st0" d="M408.77,102.2c1.14-0.57,1.98-1.82,2.06-3.04c0.05-0.74-0.17-1.79-1.44-2.63l-5.58-3.69l-3.61,5.46l5.59,3.69
			C407,102.79,408.08,102.54,408.77,102.2z"/>
	</g>
	<g>
		<g>
			<g>
				<g>
					<path class="st1" d="M323.72,205.56v-7.79h-5.59v31.16h-9.99v-15.58h-7.79v-9.99h7.79v-7.79h7.79v-5.38
						c-1.17-0.18-2.36-0.3-3.57-0.3c-12.91,0-23.37,10.46-23.37,23.37c0,12.91,10.46,23.37,23.37,23.37
						c12.91,0,23.37-10.46,23.37-23.37c0-2.7-0.49-5.29-1.33-7.7H323.72z"/>
				</g>
				<rect x="310.34" y="197.77" class="st1" width="5.59" height="5.59"/>
				<rect x="310.34" y="205.56" class="st1" width="5.59" height="5.59"/>
				<rect x="302.55" y="205.56" class="st1" width="5.59" height="5.59"/>
				<rect x="310.34" y="213.35" class="st1" width="5.59" height="5.59"/>
				<rect x="310.34" y="221.14" class="st1" width="5.59" height="5.59"/>
			</g>
			<rect x="325.8" y="197.73" class="st1" width="5.59" height="5.59"/>
			<rect x="318.13" y="189.9" class="st1" width="5.59" height="5.59"/>
			<rect x="325.91" y="182.12" class="st1" width="5.59" height="5.59"/>
		</g>
		<path class="st2" d="M215.81,337.15L234.09,268c0.82-3.11,2.31-5.88,4.21-8.3c-1.63-5.11-6.34-8.83-11.96-8.83
			c-6.97,0-12.62,5.67-12.62,12.67v17.48h-48.5v-17.65c0-6.91-5.57-12.5-12.45-12.5c-6.88,0-12.45,5.6-12.45,12.5v75.08
			c0,7.34,5.92,13.29,13.23,13.29h72.53c0.17,0,0.32-0.04,0.48-0.05C219.2,351.44,213.9,344.39,215.81,337.15z M213.73,330.9h-48.5
			v-29.03h48.5V330.9z"/>
		<path class="st3" d="M415.7,251.04h-74.53c-5.06,0-9.37,3.14-11.16,7.58c2.45,2.77,4.28,6.15,5.18,9.95l16.67,70.21
			c1.57,6.62-3.42,12.97-10.2,12.97h74.04c6.65,0,12.05-5.42,12.05-12.1v-76.5C427.74,256.46,422.35,251.04,415.7,251.04z
			 M403.95,331.22h-51.04v-59.65h51.04V331.22z"/>
		<path class="st4" d="M272.42,337.15l11.82-44.72l-5.66-23.86c-2.46-10.38-11.69-17.7-22.31-17.7c-7.2,0-13.71,3.41-17.96,8.83
			c0.39,1.22,0.65,2.49,0.65,3.84v75.28c0,0.61-0.1,1.2-0.18,1.79l15.24-62.4c0.6-2.48,4.13-2.42,4.66,0.07l13.59,64.22
			c0,0.01,0.01,0.02,0.01,0.03C271.91,340.83,271.93,339,272.42,337.15z"/>
		<path class="st5" d="M238.96,263.55c0-1.35-0.27-2.62-0.65-3.84c-1.89,2.41-3.38,5.18-4.21,8.3l-18.28,69.15
			c-1.91,7.23,3.39,14.28,10.76,14.55c0.58-0.02,1.16-0.08,1.72-0.17c0.2-0.02,0.39-0.07,0.58-0.1c3.61-0.8,6.62-3.15,8.38-6.3
			c0.35-0.73,0.76-1.42,0.96-2.23l0.56-2.28c0.08-0.59,0.18-1.18,0.18-1.79V263.55z"/>
		<path class="st6" d="M329.12,263.15c0-1.6,0.33-3.12,0.89-4.52c-5.49-6.2-14.16-9.32-23.15-6.97
			c-8.13,2.13-14.21,8.96-16.35,17.09l-6.26,23.69l10.67,44.95c0.39,1.65,0.37,3.28,0.08,4.83l15.05-61.58
			c0.61-2.51,4.18-2.5,4.78,0.01l14.4,60.15c-0.04-0.38-0.11-0.75-0.11-1.14V263.15z"/>
		<path class="st7" d="M351.86,338.78l-16.67-70.21c-0.9-3.8-2.73-7.18-5.18-9.95c-0.56,1.4-0.89,2.92-0.89,4.52v76.5
			c0,0.39,0.08,0.76,0.11,1.14l0.07,0.32c0.07,0.74,0.22,1.45,0.42,2.14c0.02,0.07,0.04,0.14,0.06,0.21
			c0.19,0.58,0.43,1.14,0.7,1.68c0.09,0.17,0.18,0.34,0.27,0.5c0.29,0.5,0.6,0.98,0.95,1.43c0.07,0.09,0.15,0.18,0.22,0.27
			c2.3,2.73,5.84,4.42,9.72,4.42C348.43,351.75,353.43,345.4,351.86,338.78z"/>
		<path class="st8" d="M294.92,337.38l-10.67-44.95l-11.82,44.72c-0.49,1.84-0.51,3.68-0.14,5.39c0.25,1.18,0.73,2.26,1.31,3.27
			c0.14,0.25,0.28,0.49,0.44,0.73c0.65,0.97,1.39,1.87,2.28,2.6c0.03,0.02,0.06,0.04,0.09,0.06c0.88,0.71,1.89,1.24,2.95,1.67
			c0.23,0.09,0.47,0.18,0.71,0.26c1.13,0.37,2.32,0.62,3.56,0.62c1.22,0,2.38-0.24,3.49-0.6c0.22-0.07,0.43-0.15,0.65-0.24
			c2.21-0.86,4.12-2.36,5.44-4.34c0.06-0.08,0.11-0.17,0.16-0.26c0.65-1.04,1.17-2.18,1.47-3.42l0.17-0.69
			C295.29,340.66,295.31,339.04,294.92,337.38z"/>
		<path class="st1" d="M257.49,189.03c-13.27,0-24.04,10.81-24.04,24.14c0,13.33,10.76,24.14,24.04,24.14
			c13.28,0,24.04-10.81,24.04-24.14C281.52,199.84,270.76,189.03,257.49,189.03z"/>
	</g>
</g>
</svg>
